<svg width="900" height="1100" viewBox="0 0 900 1100" fill="none" xmlns="http://www.w3.org/2000/svg">
  <rect width="900" height="1100" rx="44" fill="url(#bg)"/>
  <circle cx="172" cy="158" r="120" fill="url(#orb1)" fill-opacity="0.8"/>
  <circle cx="740" cy="230" r="140" fill="url(#orb2)" fill-opacity="0.7"/>
  <circle cx="620" cy="930" r="170" fill="url(#orb3)" fill-opacity="0.6"/>
  <path d="M203 931C203 788.511 318.511 673 461 673C603.489 673 719 788.511 719 931V977H203V931Z" fill="#BBD2FF" fill-opacity="0.16"/>
  <circle cx="460.5" cy="438.5" r="181.5" fill="#EAF2FF" fill-opacity="0.95"/>
  <path d="M352 443C352 390.533 394.533 348 447 348H474C526.467 348 569 390.533 569 443V507C569 559.467 526.467 602 474 602H447C394.533 602 352 559.467 352 507V443Z" fill="#0C1628" fill-opacity="0.9"/>
  <path d="M392 438C392 400.445 422.445 370 460 370C497.555 370 528 400.445 528 438V474H392V438Z" fill="#08101B"/>
  <rect x="360" y="562" width="204" height="40" rx="20" fill="#DCEBFF" fill-opacity="0.75"/>
  <rect x="196" y="801" width="508" height="132" rx="26" fill="#08101B" fill-opacity="0.54" stroke="rgba(255,255,255,0.12)"/>
  <rect x="232" y="836" width="215" height="20" rx="10" fill="#F4F7FB" fill-opacity="0.92"/>
  <rect x="232" y="872" width="337" height="14" rx="7" fill="#B7C1D1" fill-opacity="0.85"/>
  <rect x="232" y="902" width="290" height="14" rx="7" fill="#B7C1D1" fill-opacity="0.7"/>
  <defs>
    <linearGradient id="bg" x1="72" y1="51" x2="818" y2="1066" gradientUnits="userSpaceOnUse">
      <stop stop-color="#6EA8FE" stop-opacity="0.5"/>
      <stop offset="0.5" stop-color="#8B5CF6" stop-opacity="0.32"/>
      <stop offset="1" stop-color="#07111F"/>
    </linearGradient>
    <radialGradient id="orb1" cx="0" cy="0" r="1" gradientUnits="userSpaceOnUse" gradientTransform="translate(172 158) rotate(90) scale(120)">
      <stop stop-color="#22D3EE"/>
      <stop offset="1" stop-color="#22D3EE" stop-opacity="0"/>
    </radialGradient>
    <radialGradient id="orb2" cx="0" cy="0" r="1" gradientUnits="userSpaceOnUse" gradientTransform="translate(740 230) rotate(90) scale(140)">
      <stop stop-color="#8B5CF6"/>
      <stop offset="1" stop-color="#8B5CF6" stop-opacity="0"/>
    </radialGradient>
    <radialGradient id="orb3" cx="0" cy="0" r="1" gradientUnits="userSpaceOnUse" gradientTransform="translate(620 930) rotate(90) scale(170)">
      <stop stop-color="#6EA8FE"/>
      <stop offset="1" stop-color="#6EA8FE" stop-opacity="0"/>
    </radialGradient>
  </defs>
</svg>
